<svg width="220" height="63" viewBox="0 0 220 63" fill="none" xmlns="http://www.w3.org/2000/svg">
<path d="M59.6211 10.4326V51.3456H71.0767V35.7987L83.3506 51.3456H96.4428L84.4027 35.5649C87.364 34.9804 89.7214 33.792 91.4748 31.9996C93.2671 30.2462 94.1633 27.7524 94.1633 24.5184C94.1633 21.0895 93.4425 18.3425 92.0008 16.2773C90.5981 14.1732 88.6498 12.6731 86.1561 11.7769C83.7013 10.8807 80.8569 10.4326 77.6228 10.4326C74.6225 10.4326 71.6222 10.4326 68.6219 10.4326C65.6217 10.4326 62.6214 10.4326 59.6211 10.4326ZM71.0767 19.8426H76.5708C78.0904 19.8426 79.4152 20.1348 80.5452 20.7193C81.7141 21.3038 82.2986 22.5701 82.2986 24.5184C82.2986 26.4666 81.7141 27.7524 80.5452 28.3759C79.4152 28.9603 78.0904 29.2526 76.5708 29.2526H71.0767V19.8426ZM101.761 10.4326V51.3456H113.217V10.4326H101.761ZM120.581 10.4326V51.3456H132.037V30.0708L145.129 52.1638L158.221 30.0708V51.3456H169.677V10.4326H158.221L145.129 32.5256L132.037 10.4326H120.581ZM190.543 10.4326L174.177 51.3456H186.451L188.965 44.3904H205.213L207.726 51.3456H220L203.635 10.4326H190.543ZM192.354 34.9804L197.089 21.8298L201.823 34.9804H192.354Z" fill="url(#paint0_linear)"/>
<path d="M31.8568 29.3028C31.1568 29.9272 30.4159 30.5043 29.6392 31.0302C28.4041 29.6689 26.6279 28.8085 24.646 28.8085C21.2373 28.8085 18.4277 31.3388 17.9722 34.6213L17.9 34.6226C16.9695 34.6226 16.0564 34.5552 15.158 34.4389C14.833 35.439 14.6576 36.4817 14.6376 37.533C15.705 37.6773 16.7932 37.7582 17.9 37.7582C18.0249 37.7582 18.1485 37.7515 18.2728 37.7495C19.1846 40.3953 21.6902 42.2998 24.646 42.2998C28.3713 42.2998 31.3913 39.2798 31.3913 35.5538C31.3913 34.9406 31.3024 34.3501 31.1495 33.7863C32.165 33.119 33.1289 32.3764 34.0331 31.5646C33.4221 30.7084 32.6888 29.9464 31.8568 29.3028V29.3028ZM29.0867 35.5491C29.0621 36.7085 28.5842 37.8121 27.7555 38.6234C26.9268 39.4346 25.8133 39.8889 24.6537 39.8889C23.494 39.8889 22.3805 39.4346 21.5518 38.6234C20.7231 37.8121 20.2452 36.7085 20.2206 35.5491C20.2349 34.3828 20.7083 33.2692 21.5381 32.4495C22.3679 31.6298 23.4873 31.1702 24.6537 31.1702C25.82 31.1702 26.9394 31.6298 27.7693 32.4495C28.5991 33.2692 29.0724 34.3828 29.0867 35.5491V35.5491ZM10.4393 29.7591C9.33783 28.6569 7.67923 28.4745 6.37533 29.1826C4.4482 26.2802 3.55244 22.9036 3.65865 19.5516C4.5236 19.515 5.34364 19.1564 5.95784 18.5463C6.61234 17.8916 6.98006 17.0037 6.98018 16.0779C6.98031 15.1521 6.61283 14.2642 5.95851 13.6093C5.73716 13.3942 5.48801 13.2098 5.21772 13.0608C6.02245 11.3368 7.1207 9.76569 8.46344 8.4177C9.8301 7.0563 11.4261 5.94649 13.1781 5.13924C13.325 5.39375 13.494 5.6389 13.7118 5.85666C14.3551 6.49976 15.2276 6.86104 16.1372 6.86104C17.0469 6.86104 17.9193 6.49976 18.5627 5.85666C19.1584 5.25793 19.5105 4.45924 19.5506 3.61558C22.9106 3.49935 26.2979 4.38776 29.209 6.31489C28.5042 7.62748 28.6893 9.29343 29.7975 10.4016C30.9063 11.5105 32.5709 11.6962 33.8848 10.9901C35.8046 13.8911 36.6944 17.2651 36.5862 20.6124C35.7321 20.6516 34.9232 21.0074 34.317 21.6104C33.6673 22.2605 33.3023 23.1419 33.3022 24.061C33.302 24.9802 33.6668 25.8617 34.3164 26.512C34.5375 26.7331 34.7866 26.9048 35.0458 27.0544C34.9396 27.2809 34.8153 27.5006 34.6991 27.7231C35.0091 28.019 35.3056 28.3296 35.5882 28.6529C35.802 28.2641 36.0077 27.8727 36.1914 27.4732C36.7361 27.567 37.2954 27.5287 37.8223 27.3615C38.3492 27.1944 38.8283 26.9033 39.2194 26.5127C39.8696 25.8624 40.2349 24.9804 40.2349 24.0608C40.2349 23.1412 39.8696 22.2593 39.2194 21.609C38.8206 21.216 38.3316 20.9266 37.7952 20.766C37.9368 17.1008 36.9609 13.4035 34.8381 10.2359C36.0398 8.8746 36.005 6.80118 34.7005 5.49728C33.3992 4.19539 31.3251 4.15931 29.9631 5.36168C26.7849 3.23149 23.0729 2.25623 19.395 2.40653C19.2359 1.87833 18.9502 1.39701 18.5627 1.00443C17.9191 0.361173 17.0464 -0.000125234 16.1364 3.25628e-08C15.2265 0.000125299 14.3539 0.361664 13.7104 1.0051C13.3253 1.39115 13.038 1.86372 12.8727 2.38337C12.7073 2.90302 12.6687 3.45468 12.7599 3.99232C10.842 4.86308 9.09547 6.07025 7.60308 7.55667C6.13488 9.03025 4.93921 10.7522 4.07146 12.6427C3.52293 12.5482 2.95975 12.5867 2.42916 12.7549C1.89857 12.923 1.41606 13.216 1.02212 13.6093C0.367753 14.2642 0.00012528 15.1521 3.2014e-08 16.078C-0.000125216 17.0038 0.367261 17.8918 1.02145 18.547C1.4218 18.9411 1.91225 19.2316 2.45027 19.3933C2.30932 23.0672 3.29259 26.7725 5.4268 29.9441C4.25182 31.2941 4.29323 33.3361 5.57843 34.6206C6.86363 35.9058 8.90498 35.9466 10.255 34.7716C10.6578 35.0428 11.0692 35.294 11.4881 35.5284C11.5575 35.1023 11.645 34.6841 11.7526 34.2713C11.5054 34.1257 11.2569 33.9841 11.0165 33.8244C11.7245 32.5192 11.5422 30.8619 10.4393 29.7591V29.7591ZM38.2588 22.5682C38.455 22.764 38.6107 22.9965 38.7169 23.2526C38.8231 23.5086 38.8778 23.783 38.8778 24.0602C38.8778 24.3373 38.8231 24.6118 38.7169 24.8678C38.6107 25.1238 38.455 25.3564 38.2588 25.5521C37.8629 25.9474 37.3263 26.1694 36.7669 26.1694C36.2074 26.1694 35.6708 25.9474 35.2749 25.5521C34.8792 25.1564 34.6569 24.6198 34.6569 24.0602C34.6569 23.5006 34.8792 22.9639 35.2749 22.5682C35.6706 22.1726 36.2073 21.9503 36.7669 21.9503C37.3264 21.9503 37.8631 22.1726 38.2588 22.5682V22.5682ZM30.758 6.45717C31.1539 6.06235 31.6901 5.84058 32.2492 5.84045C32.8082 5.84033 33.3446 6.06186 33.7406 6.45651C34.12 6.85549 34.3286 7.38696 34.3217 7.93755C34.3149 8.48813 34.0931 9.01424 33.7038 9.40364C33.3145 9.79303 32.7884 10.0149 32.2379 10.0219C31.6873 10.0289 31.1558 9.82044 30.7567 9.44105C30.3614 9.04507 30.1395 8.50835 30.1397 7.94884C30.14 7.38932 30.3624 6.8528 30.758 6.45717V6.45717ZM14.6463 1.93761C15.0419 1.54266 15.5781 1.32079 16.1371 1.32067C16.6961 1.32054 17.2324 1.54217 17.6282 1.93694C17.8244 2.13276 17.9801 2.36536 18.0863 2.62142C18.1925 2.87749 18.2472 3.15199 18.2472 3.42921C18.2472 3.70643 18.1925 3.98094 18.0863 4.237C17.9801 4.49307 17.8244 4.72566 17.6282 4.92148C17.2324 5.31674 16.6959 5.53876 16.1366 5.53876C15.5772 5.53876 15.0407 5.31674 14.645 4.92148C14.2497 4.5255 14.0278 3.98878 14.028 3.42927C14.0283 2.86976 14.2506 2.33323 14.6463 1.93761V1.93761ZM1.99738 17.5691C1.80158 17.373 1.64632 17.1403 1.54046 16.8842C1.4346 16.6282 1.38021 16.3538 1.3804 16.0767C1.38058 15.7996 1.43534 15.5253 1.54155 15.2694C1.64775 15.0135 1.80332 14.781 1.99938 14.5852C2.19544 14.3894 2.42814 14.2341 2.68419 14.1283C2.94025 14.0224 3.21466 13.968 3.49173 13.9682C3.76881 13.9684 4.04314 14.0231 4.29906 14.1294C4.55497 14.2356 4.78746 14.3911 4.98326 14.5872C5.37868 14.9831 5.60061 15.52 5.60024 16.0795C5.59986 16.6391 5.3772 17.1756 4.98125 17.5711C4.5853 17.9665 4.04848 18.1884 3.4889 18.188C2.92931 18.1877 2.3928 17.965 1.99738 17.5691ZM9.49949 33.6821C9.10351 34.0773 8.56695 34.2992 8.00755 34.2992C7.44814 34.2992 6.91159 34.0773 6.51561 33.6821C6.13613 33.2831 5.92758 32.7517 5.93445 32.2011C5.94131 31.6505 6.16305 31.1244 6.55236 30.735C6.94167 30.3456 7.46773 30.1237 8.01831 30.1167C8.5689 30.1098 9.10042 30.3182 9.49949 30.6976C9.69572 30.8934 9.85141 31.126 9.95763 31.3821C10.0639 31.6381 10.1185 31.9126 10.1185 32.1899C10.1185 32.4671 10.0639 32.7416 9.95763 32.9976C9.85141 33.2537 9.69572 33.4863 9.49949 33.6821V33.6821ZM46.5297 59.6005L34.6951 45.9309C34.7356 45.8609 34.7537 45.7802 34.747 45.6996C34.7403 45.619 34.7091 45.5424 34.6577 45.48C34.6089 45.4192 34.5433 45.3741 34.4691 45.3503C34.3948 45.3266 34.3152 45.3252 34.2402 45.3464C36.1024 43.3404 37.2598 40.7819 37.5367 38.0587C38.2448 31.1044 33.1808 24.8941 26.2271 24.1868C19.2727 23.4794 13.0625 28.542 12.3544 35.4957C11.647 42.4507 16.7104 48.6603 23.664 49.3684C26.4264 49.6503 29.2044 49.0103 31.5649 47.5481C31.5347 47.6183 31.5254 47.6958 31.538 47.7712C31.5507 47.8466 31.5849 47.9167 31.6364 47.9732C31.688 48.0297 31.7547 48.0701 31.8286 48.0896C31.9026 48.1091 31.9805 48.1069 32.0532 48.0832L43.0382 62.4027C43.0462 62.412 43.0469 62.4241 43.0536 62.4334C43.3682 62.8195 44.4002 62.4982 45.3588 61.7153C46.3207 60.9331 46.8444 59.9859 46.5297 59.6005V59.6005ZM32.1541 45.6176C27.3099 49.5674 20.1792 48.842 16.2301 43.9971C12.2803 39.1529 13.0051 32.0222 17.8506 28.0717C22.6948 24.122 29.8248 24.8481 33.7746 29.6929C37.7244 34.5378 36.999 41.6679 32.1541 45.6176ZM25.0541 37.6372C25.0542 37.6962 25.0426 37.7547 25.0201 37.8092C24.9975 37.8637 24.9645 37.9132 24.9228 37.955C24.8811 37.9967 24.8316 38.0299 24.7771 38.0525C24.7226 38.0751 24.6642 38.0868 24.6052 38.0868C24.5462 38.0868 24.4878 38.0753 24.4333 38.0527C24.3788 38.0302 24.3292 37.9971 24.2875 37.9555C24.2457 37.9138 24.2126 37.8643 24.19 37.8098C24.1674 37.7553 24.1557 37.6969 24.1557 37.6379C24.1556 37.5188 24.2028 37.4045 24.287 37.3202C24.3712 37.2359 24.4854 37.1885 24.6046 37.1884C24.7237 37.1883 24.838 37.2355 24.9223 37.3197C25.0066 37.4039 25.054 37.5181 25.0541 37.6372V37.6372ZM25.1844 33.109L25.0541 36.155C25.0541 36.274 25.0068 36.3882 24.9226 36.4724C24.8385 36.5566 24.7243 36.6039 24.6052 36.6039C24.4862 36.6039 24.372 36.5566 24.2878 36.4724C24.2036 36.3882 24.1564 36.274 24.1564 36.155L24.0254 33.109C24.0254 32.9553 24.0865 32.8079 24.1952 32.6992C24.3038 32.5906 24.4512 32.5295 24.6049 32.5295C24.7586 32.5295 24.906 32.5906 25.0147 32.6992C25.1233 32.8079 25.1844 32.9553 25.1844 33.109Z" fill="#6CB3B8"/>
<defs>
<linearGradient id="paint0_linear" x1="54.6818" y1="10.9702" x2="200.034" y2="78.7493" gradientUnits="userSpaceOnUse">
<stop stop-color="#8F8F8F"/>
<stop offset="1" stop-color="#23F1FF"/>
</linearGradient>
</defs>
</svg>
