<svg width="220" height="66" viewBox="0 0 220 66" fill="none" xmlns="http://www.w3.org/2000/svg">
<path d="M111.5 54.5455L101.74 36.9508C105.985 35.4189 109.705 30.9984 109.705 24.8709C109.705 16.9927 104.453 10.9089 95.5683 10.9089H88.3466C81.0374 10.9089 78.4551 13.9289 78.4551 20.2753V54.5455H86.9898V38.3514H93.1173L101.608 54.5455H111.5ZM101.214 24.8709C101.214 28.241 98.7634 31.261 94.9993 31.261H86.9898V22.3761C86.9898 20.1877 88.084 18.5245 90.7976 18.5245H94.9993C98.7634 18.5245 101.214 20.888 101.214 24.8709ZM127.037 54.5455V10.9089H118.546V54.5455H127.037ZM169.448 28.5036V54.5455H177.983V10.9089H169.58L157.325 36.1192L145.026 10.9089H136.623V54.5455H145.114V28.5036L153.079 44.8728C154.261 47.1925 155.749 48.3742 157.325 48.3742C158.857 48.3742 160.432 47.3238 161.614 45.0479L169.448 28.5036ZM220 54.5455L206.038 14.5854C204.944 11.4779 203.544 10.9089 201.574 10.9089C199.473 10.9089 198.029 11.653 196.716 14.5854L182.754 54.5455H191.639L194.046 47.0174H208.664L211.115 54.5455H220ZM206.695 39.8395H196.191L201.574 22.5512L206.695 39.8395Z" fill="#11C8EF"/>
<path d="M19.9228 0.0035966C14.6 0.0979342 9.53134 2.29719 5.82632 6.11999C-0.783712 12.8373 -1.88735 23.0864 3.12085 31.101C7.83088 38.6938 16.9636 42.2211 25.4846 39.9438C25.0483 41.6241 24.8281 43.3532 24.8291 45.0893C24.8291 56.3148 33.8665 65.4548 45.0938 65.4548C56.3211 65.4548 65.4548 56.3184 65.4548 45.0893C65.4548 33.8601 56.3175 24.821 45.0938 24.821C43.302 24.821 41.5665 25.0528 39.9119 25.4864C42.2292 16.6728 38.5192 7.40181 30.6064 2.80725L30.6037 2.80543C27.3705 0.902808 23.6735 -0.0669962 19.9228 0.0035966V0.0035966ZM20.9155 1.37088C24.0868 1.47461 27.1814 2.37266 29.9155 3.98271C29.9164 3.98332 29.9173 3.98392 29.9183 3.98452C37.5001 8.38454 40.9601 17.3573 38.4301 25.7919C38.4127 25.8431 38.4014 25.8962 38.3965 25.9501C35.5209 26.9544 32.9091 28.5948 30.7557 30.7491C28.6024 32.9034 26.9631 35.5159 25.9601 38.392C17.7809 40.9829 8.82542 37.712 4.27813 30.3801C4.27752 30.3801 4.27692 30.3801 4.27631 30.3801C-0.409164 22.8819 0.619022 13.3518 6.80178 7.07363C6.80269 7.07242 6.8036 7.07121 6.80451 7.06999C8.62797 5.18697 10.8257 3.70689 13.2562 2.72513C15.6866 1.74338 18.2957 1.28174 20.9155 1.36997V1.37088ZM20.3728 10.76C17.6855 10.76 15.4255 12.9064 15.4255 15.6128C15.4255 18.3191 17.6664 20.561 20.3728 20.561C23.0782 20.561 25.2237 18.3 25.2237 15.6128C25.225 14.9753 25.1004 14.3438 24.8571 13.7546C24.6139 13.1653 24.2566 12.6299 23.8059 12.1791C23.3552 11.7282 22.82 11.3708 22.2308 11.1272C21.6417 10.8837 21.0102 10.7589 20.3728 10.76V10.76ZM20.3728 12.1237C22.3391 12.1237 23.8591 13.6455 23.8591 15.6128C23.8591 17.58 22.32 19.1973 20.3728 19.1973C18.4246 19.1973 16.7891 17.561 16.7891 15.6128C16.7891 13.6646 18.4055 12.1237 20.3728 12.1237V12.1237ZM11.2563 20.7473V29.1837C11.2566 29.2296 11.2615 29.2752 11.2709 29.3201C11.275 29.3415 11.2802 29.3628 11.2863 29.3837C11.2932 29.4053 11.3011 29.4266 11.31 29.4474C11.319 29.4679 11.329 29.4879 11.34 29.5074C11.3508 29.5273 11.3627 29.5468 11.3754 29.5656C11.3881 29.5847 11.4018 29.6032 11.4163 29.621C11.4315 29.6385 11.4476 29.6552 11.4645 29.671C11.4801 29.687 11.4965 29.7021 11.5136 29.7165C11.5321 29.7301 11.5512 29.7429 11.5709 29.7546C11.5897 29.7668 11.6091 29.778 11.6291 29.7883C11.6495 29.7987 11.6704 29.8081 11.6918 29.8165C11.7552 29.8414 11.822 29.8568 11.89 29.8619C11.906 29.8625 11.9221 29.8625 11.9382 29.8619H28.711C28.7562 29.8618 28.8012 29.8573 28.8455 29.8483C28.8676 29.8436 28.8895 29.8378 28.911 29.831C28.9325 29.8248 28.9538 29.8175 28.9746 29.8092C28.996 29.8003 29.017 29.7903 29.0373 29.7792C29.0771 29.7575 29.1145 29.7319 29.1492 29.7028C29.1666 29.6882 29.1833 29.6727 29.1992 29.6565C29.2146 29.6393 29.2292 29.6214 29.2428 29.6028C29.2574 29.585 29.271 29.5665 29.2837 29.5474C29.3081 29.5086 29.3285 29.4675 29.3446 29.4246C29.3532 29.4038 29.3608 29.3826 29.3673 29.361C29.3797 29.3171 29.3876 29.272 29.391 29.2265C29.3922 29.2104 29.3928 29.1944 29.3928 29.1783V20.7419H28.0292V28.4965H12.62V20.7419H11.2563V20.7473ZM45.0938 26.1837C55.5866 26.1837 64.0911 34.5983 64.0911 45.0893C64.0911 55.5802 55.582 64.0912 45.0938 64.0912C34.6055 64.0912 26.1928 55.5848 26.1928 45.0893C26.1835 42.6044 26.6661 40.1422 27.6126 37.8447C28.5592 35.5471 29.951 33.4596 31.7079 31.7023C33.4648 29.9451 35.5521 28.5528 37.8495 27.6059C40.1468 26.6589 42.6089 26.1759 45.0938 26.1846V26.1837ZM39.0147 36.4601C37.6774 36.5929 36.6192 37.7783 36.7556 39.1465C36.8337 39.9274 37.2874 40.5683 37.9101 40.9483L34.5028 46.3993C34.2659 46.3454 34.0221 46.3286 33.7801 46.3493C32.4437 46.4829 31.3846 47.6675 31.521 49.0356C31.6546 50.372 32.8383 51.4302 34.2065 51.2948C35.5428 51.1602 36.601 49.9775 36.4646 48.6093C36.4016 48.0164 36.1327 47.4643 35.7046 47.0493L39.291 41.3083C39.341 41.3083 39.3901 41.3174 39.4401 41.3083C39.4407 41.3083 39.4413 41.3083 39.4419 41.3083C39.9337 41.257 40.401 41.0679 40.7901 40.7629L46.272 42.9065C46.1674 43.2156 46.1247 43.5502 46.1592 43.8974C46.2938 45.2384 47.5211 46.1902 48.8438 46.0584C48.8444 46.0584 48.845 46.0584 48.8456 46.0584C50.182 45.9247 51.2484 44.782 51.1029 43.4638C50.9665 42.1302 49.7847 41.0747 48.4183 41.2111C47.9286 41.26 47.4635 41.4498 47.0792 41.7574L41.6001 39.6183C41.691 39.3383 41.7319 39.0374 41.7001 38.7201C41.5665 37.3829 40.3819 36.3229 39.0137 36.4592L39.0147 36.4601ZM39.151 37.8183C39.7219 37.762 40.2819 38.252 40.3419 38.8547C40.4001 39.4311 39.9528 39.8856 39.3056 39.9501C38.6901 40.012 38.1719 39.6074 38.1119 39.0092C38.0556 38.4383 38.5483 37.8783 39.151 37.8183ZM56.0811 38.982C54.6747 39.112 53.6865 40.3456 53.8193 41.6674C53.8811 42.2856 54.1738 42.8074 54.592 43.1983L50.8874 48.9802H50.7847C50.2771 48.9889 49.7892 49.1781 49.4083 49.5138L43.9274 47.252C44.0074 46.9821 44.0376 46.7 44.0165 46.4193C43.9938 45.072 42.7401 44.1265 41.381 44.2293C40.021 44.2511 39.0483 45.4956 39.1792 46.8075C39.3138 48.1493 40.541 49.102 41.8638 48.9711C41.8644 48.9711 41.865 48.9711 41.8656 48.9711C42.3475 48.9217 42.8031 48.7277 43.1729 48.4147L48.6792 50.6875C48.6065 50.9538 48.5702 51.2357 48.5938 51.522C48.6165 52.8811 49.8893 53.8457 51.2629 53.722C51.265 53.722 51.2671 53.722 51.2693 53.722C52.552 53.5929 53.5265 52.4711 53.4202 51.1702C53.4065 50.3629 52.9447 49.7029 52.2884 49.3238L55.7975 43.8447C56.0066 43.8956 56.2184 43.932 56.4366 43.932C56.459 43.9331 56.4814 43.9331 56.5038 43.932C57.8457 43.7974 58.7666 42.602 58.7666 41.3138C58.7663 41.2934 58.7651 41.2731 58.7629 41.2529C58.6348 39.8465 57.4029 38.8592 56.0811 38.9892V38.982ZM56.2129 40.3374C56.8184 40.2774 57.3129 40.6411 57.392 41.3429C57.3757 41.9647 56.9647 42.4774 56.3975 42.5538C55.7656 42.5347 55.2338 42.1156 55.1756 41.5311C55.1138 40.9156 55.4829 40.4056 56.2075 40.3392C56.2093 40.3393 56.2111 40.3393 56.2129 40.3392V40.3374ZM48.5547 42.5674C49.1256 42.5111 49.6856 43.0038 49.7456 43.6065C49.7462 43.6096 49.7468 43.6126 49.7474 43.6156C49.7956 44.042 49.3111 44.6429 48.7093 44.7038C48.0929 44.7647 47.5756 44.3611 47.5156 43.7629C47.4592 43.192 47.952 42.6302 48.5547 42.5693V42.5674ZM41.4701 45.5756C42.2174 45.5084 42.6665 45.8875 42.6665 46.4475C42.6667 46.4693 42.6679 46.4912 42.6701 46.5129C42.7319 47.1338 42.3719 47.5456 41.7292 47.6102C41.1129 47.6711 40.5956 47.2693 40.5356 46.6711C40.4747 46.0556 40.8492 45.5775 41.4092 45.5775C41.4295 45.5784 41.4498 45.5784 41.4701 45.5775V45.5756ZM33.9155 47.7084C34.4855 47.652 35.0474 48.142 35.1083 48.7447C35.1655 49.3157 34.6737 49.8775 34.0719 49.9384C33.4992 49.9947 32.9383 49.5029 32.8783 48.9011C32.821 48.3302 33.3128 47.7684 33.9146 47.7084H33.9155ZM50.8738 50.3266C51.6211 50.2593 52.0702 50.6384 52.0702 51.1993C52.0704 51.2209 52.0716 51.2424 52.0738 51.2638C52.1356 51.882 51.7765 52.2929 51.1374 52.3602C50.392 52.4266 49.9429 52.0484 49.9429 51.4875C49.9427 51.4659 49.9415 51.4444 49.9393 51.4229C49.8783 50.8066 50.2529 50.3284 50.8129 50.3284C50.8332 50.3293 50.8535 50.3293 50.8738 50.3284V50.3266Z" fill="#11C8EF"/>
</svg>
